name rise31.4854peak64.571fall78.6902.mot
datacolumns 19
datarows 24
range 11.02496000000000 11.06329300000000
endheader
time	ground_force1_vx	ground_force1_vy	ground_force1_vz	ground_force1_px	ground_force1_py	ground_force1_pz	ground_force2_vx	ground_force2_vy	ground_force2_vz	ground_force2_px	ground_force2_py	ground_force2_pz	ground_torque1_x	ground_torque1_y	ground_torque1_z	ground_torque2_x	ground_torque2_y	ground_torque2_z	
11.02496000000000	57.93947400000000	783.55915600000003	59.38064800000000	0.32465600000000	0.00000000000000	0.11518900000000	0.00000000000000	0.00000000000000	0.00000000000000	0.00000000000000	0.00000000000000	0.00000000000000	0.00000000000000	24.80342300000000	0.00000000000000	0.00000000000000	0.00000000000000	0.00000000000000	
11.02662400000000	57.21518300000000	785.49861899999996	59.43801500000000	0.32353200000000	0.00000000000000	0.11515900000000	0.00000000000000	0.00000000000000	0.00000000000000	0.00000000000000	0.00000000000000	0.00000000000000	0.00000000000000	24.85330600000000	0.00000000000000	0.00000000000000	0.00000000000000	0.00000000000000	
11.02829700000000	56.50166500000000	787.30534200000000	59.49344200000000	0.32244200000000	0.00000000000000	0.11512800000000	0.00000000000000	0.00000000000000	0.00000000000000	0.00000000000000	0.00000000000000	0.00000000000000	0.00000000000000	24.90154300000000	0.00000000000000	0.00000000000000	0.00000000000000	0.00000000000000	
11.02996500000000	55.79928100000000	788.97758299999998	59.54671000000000	0.32138600000000	0.00000000000000	0.11509700000000	0.00000000000000	0.00000000000000	0.00000000000000	0.00000000000000	0.00000000000000	0.00000000000000	0.00000000000000	24.94796900000000	0.00000000000000	0.00000000000000	0.00000000000000	0.00000000000000	
11.03162300000000	55.10829900000000	790.51378199999999	59.59753900000000	0.32036300000000	0.00000000000000	0.11506500000000	0.00000000000000	0.00000000000000	0.00000000000000	0.00000000000000	0.00000000000000	0.00000000000000	0.00000000000000	24.99238900000000	0.00000000000000	0.00000000000000	0.00000000000000	0.00000000000000	
11.03329000000000	54.42889400000000	791.91257399999995	59.64558900000000	0.31937100000000	0.00000000000000	0.11503200000000	0.00000000000000	0.00000000000000	0.00000000000000	0.00000000000000	0.00000000000000	0.00000000000000	0.00000000000000	25.03457900000000	0.00000000000000	0.00000000000000	0.00000000000000	0.00000000000000	
11.03496300000000	53.76115300000000	793.17280200000005	59.69046900000000	0.31841100000000	0.00000000000000	0.11499900000000	0.00000000000000	0.00000000000000	0.00000000000000	0.00000000000000	0.00000000000000	0.00000000000000	0.00000000000000	25.07428900000000	0.00000000000000	0.00000000000000	0.00000000000000	0.00000000000000	
11.03663500000000	53.10507900000000	794.29353000000003	59.73174300000000	0.31748000000000	0.00000000000000	0.11496500000000	0.00000000000000	0.00000000000000	0.00000000000000	0.00000000000000	0.00000000000000	0.00000000000000	0.00000000000000	25.11124800000000	0.00000000000000	0.00000000000000	0.00000000000000	0.00000000000000	
11.03829400000000	52.46059500000000	795.27405499999998	59.76893200000000	0.31657800000000	0.00000000000000	0.11493100000000	0.00000000000000	0.00000000000000	0.00000000000000	0.00000000000000	0.00000000000000	0.00000000000000	0.00000000000000	25.14516400000000	0.00000000000000	0.00000000000000	0.00000000000000	0.00000000000000	
11.03995900000000	51.82754800000000	796.11391600000002	59.80152300000000	0.31570200000000	0.00000000000000	0.11489600000000	0.00000000000000	0.00000000000000	0.00000000000000	0.00000000000000	0.00000000000000	0.00000000000000	0.00000000000000	25.17573100000000	0.00000000000000	0.00000000000000	0.00000000000000	0.00000000000000	
11.04162700000000	51.20571700000000	796.81290000000001	59.82897400000000	0.31485200000000	0.00000000000000	0.11486000000000	0.00000000000000	0.00000000000000	0.00000000000000	0.00000000000000	0.00000000000000	0.00000000000000	0.00000000000000	25.20263100000000	0.00000000000000	0.00000000000000	0.00000000000000	0.00000000000000	
11.04329600000000	50.59481300000000	797.37105499999996	59.85072100000000	0.31402500000000	0.00000000000000	0.11482400000000	0.00000000000000	0.00000000000000	0.00000000000000	0.00000000000000	0.00000000000000	0.00000000000000	0.00000000000000	25.22553700000000	0.00000000000000	0.00000000000000	0.00000000000000	0.00000000000000	
11.04495700000000	49.99449000000000	797.78868899999998	59.86618700000000	0.31322000000000	0.00000000000000	0.11478700000000	0.00000000000000	0.00000000000000	0.00000000000000	0.00000000000000	0.00000000000000	0.00000000000000	0.00000000000000	25.24411700000000	0.00000000000000	0.00000000000000	0.00000000000000	0.00000000000000	
11.04662600000000	49.40434500000000	798.06637799999999	59.87478000000000	0.31243600000000	0.00000000000000	0.11475000000000	0.00000000000000	0.00000000000000	0.00000000000000	0.00000000000000	0.00000000000000	0.00000000000000	0.00000000000000	25.25803500000000	0.00000000000000	0.00000000000000	0.00000000000000	0.00000000000000	
11.04829200000000	48.82393000000000	798.20497000000000	59.87591000000000	0.31166900000000	0.00000000000000	0.11471200000000	0.00000000000000	0.00000000000000	0.00000000000000	0.00000000000000	0.00000000000000	0.00000000000000	0.00000000000000	25.26695800000000	0.00000000000000	0.00000000000000	0.00000000000000	0.00000000000000	
11.04995900000000	48.25275000000000	798.20558400000004	59.86898800000000	0.31091900000000	0.00000000000000	0.11467400000000	0.00000000000000	0.00000000000000	0.00000000000000	0.00000000000000	0.00000000000000	0.00000000000000	0.00000000000000	25.27055900000000	0.00000000000000	0.00000000000000	0.00000000000000	0.00000000000000	
11.05162300000000	47.69027500000000	798.06961000000001	59.85343400000000	0.31018200000000	0.00000000000000	0.11463600000000	0.00000000000000	0.00000000000000	0.00000000000000	0.00000000000000	0.00000000000000	0.00000000000000	0.00000000000000	25.26851700000000	0.00000000000000	0.00000000000000	0.00000000000000	0.00000000000000	
11.05329400000000	47.13594400000000	797.79871100000003	59.82868300000000	0.30945800000000	0.00000000000000	0.11459700000000	0.00000000000000	0.00000000000000	0.00000000000000	0.00000000000000	0.00000000000000	0.00000000000000	0.00000000000000	25.26052200000000	0.00000000000000	0.00000000000000	0.00000000000000	0.00000000000000	
11.05496200000000	46.58917000000000	797.39481599999999	59.79419200000000	0.30874400000000	0.00000000000000	0.11455700000000	0.00000000000000	0.00000000000000	0.00000000000000	0.00000000000000	0.00000000000000	0.00000000000000	0.00000000000000	25.24627900000000	0.00000000000000	0.00000000000000	0.00000000000000	0.00000000000000	
11.05662600000000	46.04934500000000	796.86012000000005	59.74944300000000	0.30803800000000	0.00000000000000	0.11451700000000	0.00000000000000	0.00000000000000	0.00000000000000	0.00000000000000	0.00000000000000	0.00000000000000	0.00000000000000	25.22551000000000	0.00000000000000	0.00000000000000	0.00000000000000	0.00000000000000	
11.05828900000000	45.51584800000000	796.19707700000004	59.69395100000000	0.30733800000000	0.00000000000000	0.11447700000000	0.00000000000000	0.00000000000000	0.00000000000000	0.00000000000000	0.00000000000000	0.00000000000000	0.00000000000000	25.19795800000000	0.00000000000000	0.00000000000000	0.00000000000000	0.00000000000000	
11.05996200000000	44.98804900000000	795.40839500000004	59.62726600000000	0.30664100000000	0.00000000000000	0.11443700000000	0.00000000000000	0.00000000000000	0.00000000000000	0.00000000000000	0.00000000000000	0.00000000000000	0.00000000000000	25.16338500000000	0.00000000000000	0.00000000000000	0.00000000000000	0.00000000000000	
11.06162700000000	44.46531400000000	794.49702500000001	59.54898000000000	0.30594600000000	0.00000000000000	0.11439700000000	0.00000000000000	0.00000000000000	0.00000000000000	0.00000000000000	0.00000000000000	0.00000000000000	0.00000000000000	25.12158200000000	0.00000000000000	0.00000000000000	0.00000000000000	0.00000000000000	
11.06329300000000	43.94701400000000	793.46615799999995	59.45873100000000	0.30525000000000	0.00000000000000	0.11435600000000	0.00000000000000	0.00000000000000	0.00000000000000	0.00000000000000	0.00000000000000	0.00000000000000	0.00000000000000	25.07236400000000	0.00000000000000	0.00000000000000	0.00000000000000	0.00000000000000	
